Coordinates
version=1
nRows=22
nColumns=38
inDegrees=no

Units are S.I. units (second, meters, Newtons, ...)
If the header above contains a line with 'inDegrees', this indicates whether rotational values are in degrees (yes) or radians (no).

endheader
time	pelvis_tilt	pelvis_list	pelvis_rotation	pelvis_tx	pelvis_ty	pelvis_tz	hip_flexion_r	hip_adduction_r	hip_rotation_r	knee_angle_r	ankle_angle_r	subtalar_angle_r	mtp_angle_r	hip_flexion_l	hip_adduction_l	hip_rotation_l	knee_angle_l	ankle_angle_l	subtalar_angle_l	mtp_angle_l	lumbar_extension	lumbar_bending	lumbar_rotation	arm_flex_r	arm_add_r	arm_rot_r	elbow_flex_r	pro_sup_r	wrist_flex_r	wrist_dev_r	arm_flex_l	arm_add_l	arm_rot_l	elbow_flex_l	pro_sup_l	wrist_flex_l	wrist_dev_l
1.39167	-0.333519	-0.144325	-0.134919	1.14566	0.99813	-0.317301	1.13164	0.104301	-0.25872	-1.06217	0.340888	0.1	4.5289e-06	-0.111088	-0.125937	-0.3715	-0.375853	-0.212978	0.1	-5.25605e-07	0.109234	0.215342	-0.188426	-0.851077	-0.16911	-0.545829	1.22201	1.17126	0.00630181	-0.00866287	-0.134124	-0.320087	0.0553063	2.72509	1.64951	0.00718309	0.011921
1.4	-0.341759	-0.137169	-0.145115	1.1474	1.00005	-0.317537	1.11712	0.113498	-0.271303	-0.941043	0.336304	0.1	4.5289e-06	-0.12123	-0.111068	-0.346623	-0.397313	-0.260287	0.1	-5.25605e-07	0.11982	0.215581	-0.190922	-0.866026	-0.171879	-0.548762	1.23961	1.17499	0.00630181	-0.00866287	-0.139476	-0.31964	0.0692773	2.74963	1.66537	0.00718309	0.011921
1.40833	-0.346249	-0.126083	-0.150988	1.14886	1.00137	-0.318011	1.09755	0.117161	-0.288243	-0.825412	0.32897	0.1	4.5289e-06	-0.126257	-0.0925469	-0.314732	-0.435126	-0.292616	0.1	-5.25605e-07	0.125994	0.209918	-0.194558	-0.878478	-0.172215	-0.549216	1.25501	1.17959	0.00630181	-0.00866287	-0.147068	-0.32074	0.0819093	2.76445	1.67937	0.00718309	0.011921
1.41667	-0.346894	-0.11204	-0.15298	1.15006	1.00213	-0.318684	1.07363	0.116072	-0.309808	-0.717908	0.318141	0.1	4.5289e-06	-0.126547	-0.0718361	-0.279306	-0.489119	-0.312116	0.1	-5.25605e-07	0.127661	0.199327	-0.198832	-0.88817	-0.169899	-0.547505	1.26795	1.18363	0.00630181	-0.00866287	-0.157264	-0.322826	0.0926803	2.76885	1.68903	0.00718309	0.011921
1.425	-0.343857	-0.0963247	-0.151913	1.15106	1.00236	-0.319489	1.04623	0.111438	-0.335572	-0.621021	0.303365	0.1	4.5289e-06	-0.12259	-0.0506994	-0.244185	-0.558411	-0.321601	0.1	-5.25605e-07	0.124904	0.185306	-0.203037	-0.894971	-0.165062	-0.543888	1.27837	1.18581	0.00630181	-0.00866287	-0.170372	-0.325185	0.101204	2.76267	1.69208	0.00718309	0.011921
1.43333	-0.33748	-0.0803917	-0.148845	1.15188	1.00213	-0.320346	1.01624	0.104729	-0.36429	-0.536896	0.284606	0.1	4.5289e-06	-0.115029	-0.0310328	-0.212973	-0.64145	-0.323961	0.1	-5.25605e-07	0.117939	0.169683	-0.206374	-0.898869	-0.158147	-0.538574	1.2864	1.18519	0.00630181	-0.00866287	-0.186544	-0.327047	0.107277	2.74622	1.68698	0.00718309	0.011921
1.44167	-0.328202	-0.0656734	-0.144912	1.15256	1.00145	-0.321173	0.984463	0.0974856	-0.39387	-0.467167	0.262333	0.1	4.5289e-06	-0.104682	-0.0146525	-0.188568	-0.736135	-0.321692	0.1	-5.25605e-07	0.107071	0.154343	-0.208038	-0.899935	-0.149818	-0.531731	1.29229	1.1814	0.00630181	-0.00866287	-0.205716	-0.327711	0.110875	2.72022	1.67323	0.00718309	0.011921
1.45	-0.316489	-0.0533861	-0.141184	1.15313	1.00032	-0.321898	0.951602	0.0911346	-0.421529	-0.412881	0.237562	0.1	4.5289e-06	-0.0924612	-0.00307457	-0.172811	-0.840017	-0.316571	0.1	-5.25605e-07	0.0926899	0.140945	-0.207309	-0.898271	-0.140841	-0.523479	1.29631	1.17474	0.00630181	-0.00866287	-0.227601	-0.326654	0.112109	2.68565	1.65173	0.00718309	0.011921
1.45833	-0.302812	-0.0443832	-0.138531	1.15361	0.998731	-0.32247	0.918235	0.0867863	-0.444307	-0.374525	0.211865	0.1	4.5289e-06	-0.0792431	0.00265442	-0.166317	-0.950569	-0.309466	0.1	-5.25605e-07	0.0752759	0.130714	-0.203639	-0.893971	-0.131966	-0.513889	1.29872	1.16612	0.00630181	-0.00866287	-0.25172	-0.323608	0.111179	2.64353	1.62474	0.00718309	0.011921
1.46667	-0.287661	-0.0390873	-0.137507	1.15403	0.996637	-0.322863	0.884879	0.0851007	-0.459631	-0.352134	0.187372	0.1	4.5289e-06	-0.0656924	0.00203488	-0.168526	-1.06543	-0.300367	0.1	-5.25605e-07	0.0554235	0.124336	-0.19673	-0.88708	-0.123841	-0.502969	1.29971	1.15688	0.00630181	-0.00866287	-0.277455	-0.318563	0.108344	2.59481	1.59564	0.00718309	0.011921
1.475	-0.271562	-0.0374927	-0.13829	1.15439	0.994004	-0.323079	0.85206	0.0862369	-0.465805	-0.345446	0.166806	0.1	4.5289e-06	-0.0521095	-0.00489693	-0.177907	-1.18259	-0.288605	0.1	-5.25605e-07	0.0338579	0.121964	-0.186577	-0.877579	-0.116964	-0.49066	1.29939	1.14855	0.00630181	-0.00866287	-0.304116	-0.311732	0.103903	2.54023	1.56835	0.00718309	0.011921
1.48333	-0.255097	-0.0392229	-0.140685	1.1547	0.990791	-0.323147	0.820382	0.0898966	-0.462305	-0.354037	0.153454	0.1	4.5289e-06	-0.0383254	-0.0176414	-0.192261	-1.30047	-0.273202	0.1	-5.25605e-07	0.0114269	0.123298	-0.173467	-0.865372	-0.111659	-0.47684	1.29781	1.14244	0.00630181	-0.00866287	-0.330993	-0.303479	0.0981867	2.48028	1.54675	0.00718309	0.011921
1.49167	-0.238909	-0.0436242	-0.14419	1.15496	0.986949	-0.323113	0.790524	0.0954798	-0.449655	-0.37731	0.150963	0.1	4.5289e-06	-0.0236631	-0.0353358	-0.209026	-1.41788	-0.253248	0.1	-5.25605e-07	-0.0109355	0.127705	-0.157917	-0.850291	-0.108083	-0.46133	1.29505	1.13944	0.00630181	-0.00866287	-0.357403	-0.294259	0.0915521	2.41528	1.53403	0.00718309	0.011921
1.5	-0.223671	-0.0498819	-0.148119	1.15515	0.982451	-0.323039	0.763179	0.102252	-0.429288	-0.414388	0.162852	0.1	4.5289e-06	-0.00697849	-0.056878	-0.225579	-1.53396	-0.228205	0.1	-5.25605e-07	-0.0322795	0.134347	-0.14058	-0.832107	-0.106242	-0.443913	1.29122	1.13981	0.00630181	-0.00866287	-0.382726	-0.28455	0.0843644	2.34541	1.53225	0.00718309	0.011921
1.50833	-0.210037	-0.0571463	-0.151735	1.15522	0.977289	-0.322984	0.738904	0.109498	-0.403371	-0.463889	0.191766	0.1	4.5289e-06	0.0132242	-0.0810597	-0.239506	-1.64803	-0.198079	0.1	-5.25605e-07	-0.0517309	0.142311	-0.122127	-0.810551	-0.106021	-0.424384	1.28655	1.14332	0.00630181	-0.00866287	-0.406441	-0.274812	0.0769738	2.27093	1.54213	0.00718309	0.011921
1.51667	-0.198583	-0.0646462	-0.154399	1.15508	0.971519	-0.322998	0.717944	0.116639	-0.37451	-0.52366	0.238624	0.1	4.5289e-06	0.0386141	-0.106693	-0.248831	-1.7594	-0.16343	0.1	-5.25605e-07	-0.0685842	0.150718	-0.10314	-0.785361	-0.107222	-0.402605	1.28142	1.1494	0.00630181	-0.00866287	-0.428166	-0.265451	0.0696788	2.19228	1.56307	0.00718309	0.011921
1.525	-0.189746	-0.0717697	-0.155677	1.15459	0.965286	-0.323109	0.700067	0.123325	-0.34524	-0.590579	0.301989	0.1	4.5289e-06	0.0708145	-0.132713	-0.252194	-1.86726	-0.125225	0.1	-5.25605e-07	-0.0823758	0.158798	-0.0840071	-0.756332	-0.1096	-0.378594	1.27644	1.15749	0.00630181	-0.00866287	-0.447701	-0.256795	0.0626814	2.11026	1.59343	0.00718309	0.011921
1.53333	-0.183774	-0.0780927	-0.155427	1.15368	0.958794	-0.323316	0.684487	0.129411	-0.317642	-0.660624	0.378013	0.1	4.5289e-06	0.111165	-0.15823	-0.248968	-1.97054	-0.0846202	0.1	-5.25605e-07	-0.092918	0.165932	-0.0648702	-0.723412	-0.112885	-0.352602	1.27242	1.16722	0.00630181	-0.00866287	-0.465077	-0.24908	0.0560417	2.02607	1.63081	0.00718309	0.011921
1.54167	-0.180706	-0.0833499	-0.153812	1.15233	0.952281	-0.323587	0.669929	0.134853	-0.293103	-0.729257	0.461085	0.1	4.5289e-06	0.160501	-0.182526	-0.239308	-2.06782	-0.0427621	0.1	-5.25605e-07	-0.100283	0.171637	-0.0456104	-0.686786	-0.116802	-0.325183	1.2705	1.17857	0.00630181	-0.00866287	-0.480597	-0.242449	0.0496488	1.94133	1.67241	0.00718309	0.011921
1.55	-0.18037	-0.0873593	-0.151263	1.15057	0.946022	-0.323866	0.654814	0.139549	-0.272247	-0.792026	0.54495	0.1	4.5289e-06	0.218987	-0.204991	-0.224107	-2.15735	-0.00067197	0.1	-5.25605e-07	-0.104735	0.175521	-0.025906	-0.64696	-0.12107	-0.297221	1.27204	1.19173	0.00630181	-0.00866287	-0.494853	-0.236966	0.043219	1.85806	1.71531	0.00718309	0.011921
1.55833	-0.182426	-0.0899275	-0.148367	1.14844	0.940291	-0.324091	0.63753	0.143218	-0.254976	-0.845171	0.623842	0.1	4.5289e-06	0.286048	-0.225047	-0.204875	-2.23715	0.0407993	0.1	-5.25605e-07	-0.106631	0.177218	-0.00534546	-0.604791	-0.125401	-0.269891	1.2786	1.20705	0.00630181	-0.00866287	-0.508704	-0.232631	0.0363351	1.77856	1.75656	0.00718309	0.011921
1.56667	-0.186434	-0.0907765	-0.145731	1.14605	0.935318	-0.324209	0.616711	0.145318	-0.240685	-0.886083	0.693268	0.1	4.5289e-06	0.36042	-0.24208	-0.183546	-2.30516	0.0809379	0.1	-5.25605e-07	-0.106299	0.176351	0.0164241	-0.561458	-0.129509	-0.244533	1.29177	1.22485	0.00630181	-0.00866287	-0.523201	-0.229411	0.0285234	1.70527	1.79319	0.00718309	0.011921
